<svg width="80" height="111" viewBox="0 0 80 111" fill="none" xmlns="http://www.w3.org/2000/svg">
<path fill-rule="evenodd" clip-rule="evenodd" d="M76.5214 2.98278C76.6045 3.55049 76.9374 3.87492 77.5196 3.95601C77.8245 4.95647 78.3236 5.84861 79.0169 6.63241C80.3278 9.54662 80.3278 12.4663 79.0169 15.3915C76.1246 20.3701 71.7159 22.5193 65.7909 21.8392C64.8513 21.5841 63.9362 21.2597 63.0458 20.866C62.1547 20.277 61.2396 19.7499 60.3008 19.2845C59.2377 17.9381 58.2395 16.5593 57.3062 15.1482C56.6587 12.3861 56.6587 9.62861 57.3062 6.87572C60.2646 1.54058 64.8396 -0.68975 71.0314 0.184722C72.9771 0.930228 74.807 1.86291 76.5214 2.98278Z" fill="#5181B8"/>
<path fill-rule="evenodd" clip-rule="evenodd" d="M18.1907 30.0296C18.1255 56.1291 18.1907 82.2281 18.3863 108.327C18.5423 108.216 18.6075 108.055 18.5819 107.843C18.5483 107.604 18.6136 107.443 18.7775 107.36C19.212 106.399 19.538 105.352 19.7555 104.218C19.8991 102.672 20.3554 101.303 21.1247 100.11C21.4226 99.5313 21.6182 98.887 21.7115 98.177C22.9684 93.7366 24.4029 89.3867 26.0147 85.1275C26.451 84.3213 26.7769 83.4352 26.9927 82.4693C27.095 81.6501 27.2581 80.8446 27.4817 80.0527C29.1106 75.4484 30.7081 70.8569 32.2738 66.2782C32.7446 65.4999 33.0705 64.6139 33.2518 63.62C33.3835 62.4888 33.7093 61.4417 34.2298 60.4785C34.7572 59.1701 35.2135 57.8007 35.599 56.3703C36.5909 53.0564 37.6014 49.7537 38.6308 46.4623C40.4262 41.4668 42.1539 36.4727 43.8142 31.4796C44.0219 31.0006 44.2826 30.5577 44.5966 30.1505C56.3325 29.9893 68.0685 29.9893 79.8044 30.1505C79.9132 30.243 79.9783 30.3638 80 30.5129C80 57.3369 80 84.1609 80 110.985C74.0016 110.985 68.0033 110.985 62.0049 110.985C61.8744 110.985 61.8093 110.904 61.8093 110.743C61.842 84.483 61.8093 58.2228 61.7115 31.9629C61.5083 32.1427 61.4105 32.3843 61.4181 32.6879C61.1669 33.3892 60.9713 34.1141 60.8313 34.8628C60.9056 35.3939 60.7752 35.7968 60.4401 36.0711C60.0262 36.8589 59.7655 37.745 59.6577 38.7293C59.6913 38.969 59.626 39.13 59.4621 39.2126C59.2493 39.6998 59.0537 40.2235 58.8753 40.7834C58.889 40.9683 58.9541 41.0891 59.0709 41.1459C58.4544 42.952 57.8024 44.7241 57.1149 46.4623C56.8025 47.0297 56.6069 47.674 56.5281 48.3956C56.2605 49.7972 55.902 51.1664 55.4523 52.5038C55.281 53.0494 55.0527 53.5327 54.7677 53.9537C54.647 53.9805 54.5492 54.061 54.4743 54.1954C54.3883 54.7671 54.2905 55.3309 54.1809 55.887C53.886 56.2932 53.6904 56.7765 53.5941 57.3369C53.6814 57.9435 53.5511 58.4268 53.2029 58.7869C52.9608 59.2011 52.8303 59.6844 52.8117 60.2368C52.7092 60.6732 52.5788 61.0758 52.4205 61.4451C52.08 61.903 51.8844 62.4668 51.8337 63.1367C51.8236 63.8244 51.628 64.3885 51.2469 64.8283C51.0048 65.2425 50.8743 65.7258 50.8557 66.2782C50.5164 67.8031 50.06 69.253 49.4866 70.6281C49.1233 71.0587 48.9277 71.6225 48.8998 72.3197C48.418 73.2725 48.0919 74.3196 47.9218 75.4612C47.9409 75.9573 47.8105 76.3602 47.5306 76.6695C47.0435 77.4249 46.7828 78.3108 46.7482 79.3277C46.1905 81.4321 45.5711 83.5265 44.89 85.6108C44.5627 86.2546 44.2693 86.8989 44.0098 87.5441C43.7125 88.1217 43.5169 88.7662 43.423 89.4773C43.2166 91.0056 42.7603 92.3751 42.0538 93.5855C41.8594 94.2196 41.6638 94.8639 41.467 95.5188C40.9817 97.2623 40.4927 99.0344 40 100.835C39.9251 100.97 39.8273 101.05 39.7066 101.077C39.1002 102.435 38.6439 103.885 38.3374 105.427C38.1512 106.417 37.9229 107.383 37.6528 108.327C37.3256 108.97 37.0322 109.615 36.7726 110.26C36.6226 110.422 36.4921 110.624 36.3814 110.864C24.3849 110.985 12.3881 111.025 0.391198 110.985C0.270431 110.958 0.172632 110.878 0.0977996 110.743C-0.0325998 83.9192 -0.0325998 57.0953 0.0977996 30.2713C6.11439 30.0306 12.1453 29.9501 18.1907 30.0296Z" fill="#5181B8"/>
</svg>
