<svg width="100" height="68" viewBox="0 0 100 68" fill="none" xmlns="http://www.w3.org/2000/svg">
<path d="M49.2255 54.0212H35.6766L24.1702 38.2255L12.7319 54.0212H0L18.1106 29.9191L0.612766 6.4978H14.0255L25.1234 21.7489L36.1532 6.4978H48.6808L31.0468 29.7148L49.2255 54.0212ZM79.4319 16.0978C86.195 16.0978 91.2106 17.8226 94.4787 21.2723C97.7468 24.722 99.3808 29.556 99.3808 35.7744C99.3808 42.0382 97.7468 46.8949 94.4787 50.3446C91.2106 53.7489 86.195 55.451 79.4319 55.451C73.4404 55.451 68.8333 54.2255 65.6106 51.7744V67.5701H54.7851V17.7318H64.1809L64.317 21.885C67.8574 18.0268 72.8957 16.0978 79.4319 16.0978ZM76.7085 46.8042C80.5667 46.8042 83.4944 45.9417 85.4915 44.217C87.4886 42.4922 88.4872 39.6779 88.4872 35.7744C88.4872 31.9162 87.4886 29.1247 85.4915 27.3999C83.4944 25.6751 80.5667 24.8127 76.7085 24.8127C72.8957 24.8127 69.9454 25.7885 67.8574 27.7404C65.7695 29.6467 64.7255 32.3247 64.7255 35.7744C64.7255 39.2241 65.7695 41.9247 67.8574 43.8765C69.9454 45.8283 72.8957 46.8042 76.7085 46.8042Z" fill="#5181B8"/>
</svg>
